# xmcd
#
# Track frame offsets:
#	150
#	22713
#	45980
#	61183
#	79989
#	105045
#	124623
#	144984
#	167999
#	187555
#	206496
#	225308
#	245676
#
# Disc length: 3571 seconds
#
# Revision: 2
# Processed by: cddbd v1.5.2PL0 Copyright (c) Steve Scherf et al.
# Submitted via: audiograbber 1.83.01
#
DISCID=8f0df10d
DTITLE=Lionel Richie - Tuskegee
DYEAR=2012
DGENRE=Pop
TTITLE0=You Are (Feat. Blake Shelton)
TTITLE1=Say You (Feat. Jason Aldean)
TTITLE2=Stuck On You (Feat. Darius Rucker)
TTITLE3=Deep Rive Woman (Feat. Little Big Town)
TTITLE4=My Love (Feat. Kenny Chesney)
TTITLE5=Dancing On The Ceiling (Feat. Rascal Flatts)
TTITLE6=Hello (Feat. Jennifer Nettles)
TTITLE7=Sail On (Feat. Tim McGraw)
TTITLE8=Endless Love (Feat. Shania Twain)
TTITLE9=Just For You (Feat. Billy Currington)
TTITLE10=Lady (Feat. Kenny Rodgers)
TTITLE11=Easy (Feat. Willie Nelson)
TTITLE12=All Night Long (Feat. Jimmy Buffett)
EXTD=
EXTT0=
EXTT1=
EXTT2=
EXTT3=
EXTT4=
EXTT5=
EXTT6=
EXTT7=
EXTT8=
EXTT9=
EXTT10=
EXTT11=
EXTT12=
PLAYORDER=
